<svg width="24" height="24" viewBox="0 0 24 24" fill="none" xmlns="http://www.w3.org/2000/svg">
<path d="M10.5303 6.46967C10.8232 6.76256 10.8232 7.23744 10.5303 7.53033L6.81066 11.25H19C19.4142 11.25 19.75 11.5858 19.75 12C19.75 12.4142 19.4142 12.75 19 12.75H6.81066L10.5303 16.4697C10.8232 16.7626 10.8232 17.2374 10.5303 17.5303C10.2374 17.8232 9.76256 17.8232 9.46967 17.5303L4.46967 12.5303C4.39776 12.4584 4.34351 12.3755 4.30691 12.2871C4.27024 12.1987 4.25 12.1017 4.25 12C4.25 11.8983 4.27024 11.8013 4.30691 11.7129C4.34351 11.6245 4.39776 11.5416 4.46967 11.4697L9.46967 6.46967C9.76256 6.17678 10.2374 6.17678 10.5303 6.46967Z" fill="black"/>
</svg>
