<svg width="24" height="24" viewBox="0 0 24 24" fill="none" xmlns="http://www.w3.org/2000/svg">
<path fill-rule="evenodd" clip-rule="evenodd" d="M18.22 1.25C18.6342 1.25 18.97 1.58579 18.97 2V5.03003H22C22.4142 5.03003 22.75 5.36582 22.75 5.78003C22.75 6.19424 22.4142 6.53003 22 6.53003H18.97V9.56C18.97 9.97421 18.6342 10.31 18.22 10.31C17.8058 10.31 17.47 9.97421 17.47 9.56V6.53003H14.44C14.0258 6.53003 13.69 6.19424 13.69 5.78003C13.69 5.36582 14.0258 5.03003 14.44 5.03003H17.47V2C17.47 1.58579 17.8058 1.25 18.22 1.25ZM4.889 4.75C4.26021 4.75 3.75 5.26021 3.75 5.889V19.111C3.75 19.7398 4.26021 20.25 4.889 20.25H18.111C18.7398 20.25 19.25 19.7398 19.25 19.111V13.444C19.25 13.0298 19.5858 12.694 20 12.694C20.4142 12.694 20.75 13.0298 20.75 13.444V19.111C20.75 20.5682 19.5682 21.75 18.111 21.75H4.889C3.43179 21.75 2.25 20.5682 2.25 19.111V5.889C2.25 4.43179 3.43179 3.25 4.889 3.25H10.556C10.9702 3.25 11.306 3.58579 11.306 4C11.306 4.41421 10.9702 4.75 10.556 4.75H4.889Z" fill="black"/>
</svg>
