<svg width="24" height="24" viewBox="0 0 24 24" fill="none" xmlns="http://www.w3.org/2000/svg">
<path d="M12.9528 8.66095L11.0472 15.3304" stroke="black" stroke-width="1.5" stroke-linecap="round" stroke-linejoin="round"/>
<path d="M8.90272 12.9484L6.99792 11.0426L8.90272 9.13782" stroke="black" stroke-width="1.5" stroke-linecap="round" stroke-linejoin="round"/>
<path d="M15.0973 14.8542L17.0021 12.9484L15.0973 11.0436" stroke="black" stroke-width="1.5" stroke-linecap="round" stroke-linejoin="round"/>
<path fill-rule="evenodd" clip-rule="evenodd" d="M7.9983 2.99194H16.0016C18.7642 2.99194 21.0037 5.23145 21.0037 7.99403V15.9974C21.0037 17.324 20.4767 18.5963 19.5386 19.5344C18.6006 20.4724 17.3283 20.9994 16.0016 20.9994H7.9983C5.23572 20.9994 2.99622 18.7599 2.99622 15.9974V7.99403C2.99622 6.66739 3.52322 5.39509 4.46129 4.45702C5.39936 3.51895 6.67166 2.99194 7.9983 2.99194Z" stroke="black" stroke-width="1.5" stroke-linecap="round" stroke-linejoin="round"/>
</svg>
