<svg width="24" height="24" viewBox="0 0 24 24" fill="none" xmlns="http://www.w3.org/2000/svg">
<path fill-rule="evenodd" clip-rule="evenodd" d="M13.2536 6.59771C13.2421 6.60795 13.2307 6.6186 13.2197 6.62967C13.2086 6.64075 13.1979 6.65208 13.1877 6.66365L4.76409 15.0873L4.7633 15.0881C4.4335 15.4165 4.25 15.8619 4.25 16.325V19C4.25 19.4142 4.58579 19.75 5 19.75H7.675C8.13818 19.75 8.58359 19.5665 8.91206 19.2366L17.3564 10.7939C17.3611 10.7894 17.3657 10.7849 17.3703 10.7803C17.3749 10.7758 17.3794 10.7712 17.3838 10.7665L19.2383 8.9124C19.9212 8.22951 19.9212 7.12158 19.2383 6.43869L17.5623 4.76269C16.8794 4.0798 15.7716 4.0798 15.0887 4.76269L13.2536 6.59771ZM16.1493 5.82335C16.2464 5.72624 16.4046 5.72624 16.5017 5.82335L18.1777 7.49935C18.2748 7.59644 18.2748 7.75453 18.1777 7.85164L16.8399 9.18922L14.8117 7.16101L16.1493 5.82335ZM15.7791 10.2498L7.85072 18.1766L7.84926 18.1781C7.8038 18.2238 7.7415 18.25 7.675 18.25H5.75V16.325C5.75 16.2585 5.77621 16.1962 5.82191 16.1508L5.82333 16.1493L13.751 8.22167L15.7791 10.2498Z" fill="black"/>
</svg>
