<svg width="24" height="24" viewBox="0 0 24 24" fill="none" xmlns="http://www.w3.org/2000/svg">
<path fill-rule="evenodd" clip-rule="evenodd" d="M8.99999 5.49728C9.27625 5.49728 9.5002 5.72124 9.5002 5.99749C9.5002 6.27375 9.27625 6.4977 8.99999 6.4977C8.72374 6.4977 8.49979 6.27375 8.49979 5.99749C8.49979 5.72124 8.72374 5.49728 8.99999 5.49728Z" fill="black"/>
<path fill-rule="evenodd" clip-rule="evenodd" d="M15 5.49728C15.2763 5.49728 15.5002 5.72124 15.5002 5.99749C15.5002 6.27375 15.2763 6.4977 15 6.4977C14.7237 6.4977 14.4998 6.27375 14.4998 5.99749C14.4998 5.72124 14.7237 5.49728 15 5.49728Z" fill="black"/>
<path fill-rule="evenodd" clip-rule="evenodd" d="M8.99999 11.4998C9.27625 11.4998 9.5002 11.7237 9.5002 12C9.5002 12.2763 9.27625 12.5002 8.99999 12.5002C8.72374 12.5002 8.49979 12.2763 8.49979 12C8.49979 11.7237 8.72374 11.4998 8.99999 11.4998Z" fill="black"/>
<path fill-rule="evenodd" clip-rule="evenodd" d="M15 11.4998C15.2763 11.4998 15.5002 11.7237 15.5002 12C15.5002 12.2763 15.2763 12.5002 15 12.5002C14.7237 12.5002 14.4998 12.2763 14.4998 12C14.4998 11.7237 14.7237 11.4998 15 11.4998Z" fill="black"/>
<path fill-rule="evenodd" clip-rule="evenodd" d="M9 17.5023C9.27625 17.5023 9.5002 17.7262 9.5002 18.0025C9.5002 18.2788 9.27625 18.5027 9 18.5027C8.72374 18.5027 8.49979 18.2788 8.49979 18.0025C8.49979 17.7262 8.72374 17.5023 9 17.5023Z" fill="black"/>
<path fill-rule="evenodd" clip-rule="evenodd" d="M15 17.5023C15.2763 17.5023 15.5002 17.7262 15.5002 18.0025C15.5002 18.2788 15.2763 18.5027 15 18.5027C14.7237 18.5027 14.4998 18.2788 14.4998 18.0025C14.4998 17.7262 14.7237 17.5023 15 17.5023Z" fill="black"/>
<path fill-rule="evenodd" clip-rule="evenodd" d="M8.99999 5.49728C9.27625 5.49728 9.5002 5.72124 9.5002 5.99749C9.5002 6.27375 9.27625 6.4977 8.99999 6.4977C8.72374 6.4977 8.49979 6.27375 8.49979 5.99749C8.49979 5.72124 8.72374 5.49728 8.99999 5.49728Z" stroke="black" stroke-width="1.5" stroke-linecap="round" stroke-linejoin="round"/>
<path fill-rule="evenodd" clip-rule="evenodd" d="M15 5.49728C15.2763 5.49728 15.5002 5.72124 15.5002 5.99749C15.5002 6.27375 15.2763 6.4977 15 6.4977C14.7237 6.4977 14.4998 6.27375 14.4998 5.99749C14.4998 5.72124 14.7237 5.49728 15 5.49728Z" stroke="black" stroke-width="1.5" stroke-linecap="round" stroke-linejoin="round"/>
<path fill-rule="evenodd" clip-rule="evenodd" d="M8.99999 11.4998C9.27625 11.4998 9.5002 11.7237 9.5002 12C9.5002 12.2763 9.27625 12.5002 8.99999 12.5002C8.72374 12.5002 8.49979 12.2763 8.49979 12C8.49979 11.7237 8.72374 11.4998 8.99999 11.4998Z" stroke="black" stroke-width="1.5" stroke-linecap="round" stroke-linejoin="round"/>
<path fill-rule="evenodd" clip-rule="evenodd" d="M15 11.4998C15.2763 11.4998 15.5002 11.7237 15.5002 12C15.5002 12.2763 15.2763 12.5002 15 12.5002C14.7237 12.5002 14.4998 12.2763 14.4998 12C14.4998 11.7237 14.7237 11.4998 15 11.4998Z" stroke="black" stroke-width="1.5" stroke-linecap="round" stroke-linejoin="round"/>
<path fill-rule="evenodd" clip-rule="evenodd" d="M9 17.5023C9.27625 17.5023 9.5002 17.7262 9.5002 18.0025C9.5002 18.2788 9.27625 18.5027 9 18.5027C8.72374 18.5027 8.49979 18.2788 8.49979 18.0025C8.49979 17.7262 8.72374 17.5023 9 17.5023Z" stroke="black" stroke-width="1.5" stroke-linecap="round" stroke-linejoin="round"/>
<path fill-rule="evenodd" clip-rule="evenodd" d="M15 17.5023C15.2763 17.5023 15.5002 17.7262 15.5002 18.0025C15.5002 18.2788 15.2763 18.5027 15 18.5027C14.7237 18.5027 14.4998 18.2788 14.4998 18.0025C14.4998 17.7262 14.7237 17.5023 15 17.5023Z" stroke="black" stroke-width="1.5" stroke-linecap="round" stroke-linejoin="round"/>
</svg>
