<svg width="24" height="24" viewBox="0 0 24 24" fill="none" xmlns="http://www.w3.org/2000/svg">
<path d="M5.99752 10.7498C6.68799 10.7498 7.24773 11.3095 7.24773 12C7.24773 12.6904 6.68799 13.2502 5.99752 13.2502C5.30705 13.2502 4.74731 12.6904 4.74731 12C4.74731 11.3095 5.30705 10.7498 5.99752 10.7498Z" fill="black"/>
<path d="M13.2502 12C13.2502 11.3095 12.6905 10.7498 12 10.7498C11.3096 10.7498 10.7498 11.3095 10.7498 12C10.7498 12.6904 11.3096 13.2502 12 13.2502C12.6905 13.2502 13.2502 12.6904 13.2502 12Z" fill="black"/>
<path d="M19.2527 12C19.2527 11.3095 18.693 10.7498 18.0025 10.7498C17.3121 10.7498 16.7523 11.3095 16.7523 12C16.7523 12.6904 17.3121 13.2502 18.0025 13.2502C18.693 13.2502 19.2527 12.6904 19.2527 12Z" fill="black"/>
</svg>
