<svg width="24" height="24" viewBox="0 0 24 24" fill="none" xmlns="http://www.w3.org/2000/svg">
<path d="M8.76 2.5C8.76 2.08579 9.09579 1.75 9.51 1.75C9.92421 1.75 10.26 2.08579 10.26 2.5V3.52C10.26 3.93421 9.92421 4.27 9.51 4.27C9.09579 4.27 8.76 3.93421 8.76 3.52V2.5Z" fill="#323232"/>
<path d="M4.11967 4.11968C3.82678 4.41257 3.82678 4.88745 4.11967 5.18034L4.83967 5.90034C5.13256 6.19323 5.60744 6.19323 5.90033 5.90034C6.19322 5.60745 6.19322 5.13257 5.90033 4.83968L5.18033 4.11968C4.88744 3.82679 4.41256 3.82679 4.11967 4.11968Z" fill="#323232"/>
<path d="M5.91685 13.0862C5.62205 12.7952 5.14719 12.7984 4.85622 13.0932L4.09622 13.8632C3.80524 14.158 3.80835 14.6328 4.10315 14.9238C4.39795 15.2148 4.87281 15.2117 5.16379 14.9169L5.92379 14.1469C6.21476 13.8521 6.21166 13.3772 5.91685 13.0862Z" fill="#323232"/>
<path d="M13.8297 4.11968C14.1226 3.82679 14.5974 3.82679 14.8903 4.11968C15.1832 4.41257 15.1832 4.88745 14.8903 5.18034L14.1703 5.90034C13.8774 6.19323 13.4026 6.19323 13.1097 5.90034C12.8168 5.60745 12.8168 5.13257 13.1097 4.83968L13.8297 4.11968Z" fill="#323232"/>
<path d="M4.27 9.51001C4.27 9.0958 3.93421 8.76001 3.52 8.76001H2.5C2.08579 8.76001 1.75 9.0958 1.75 9.51001C1.75 9.92422 2.08579 10.26 2.5 10.26H3.52C3.93421 10.26 4.27 9.92422 4.27 9.51001Z" fill="#323232"/>
<path fill-rule="evenodd" clip-rule="evenodd" d="M12.1603 8.26768C11.4769 7.58425 10.3687 7.58319 9.68524 8.26811L8.27348 9.68087C7.58981 10.3647 7.58995 11.4725 8.27367 12.1563L17.8506 21.7372C18.534 22.4218 19.6422 22.4205 20.3255 21.7372L21.7375 20.3242C22.4212 19.6403 22.421 18.5325 21.7373 17.8487L12.1603 8.26768ZM12.5691 10.7984L11.0996 9.32823C11.0011 9.22986 10.8435 9.23087 10.747 9.32766L9.33452 10.7412C9.23641 10.8393 9.23622 10.9976 9.33433 11.0957L10.7996 12.5616L12.5691 10.7984ZM11.8601 13.6225L18.9114 20.6768C19.008 20.7736 19.166 20.7752 19.2645 20.6769L20.6765 19.2639C20.7746 19.1658 20.7748 19.0074 20.6767 18.9093L13.6296 11.8593L11.8601 13.6225Z" fill="#323232"/>
</svg>
