<svg width="24" height="24" viewBox="0 0 24 24" fill="none" xmlns="http://www.w3.org/2000/svg">
<path fill-rule="evenodd" clip-rule="evenodd" d="M16.0268 17.0874C14.6766 18.2014 12.9458 18.8705 11.0586 18.8705C6.74423 18.8705 3.2467 15.373 3.2467 11.0586C3.2467 6.74417 6.74423 3.24664 11.0586 3.24664C15.3731 3.24664 18.8706 6.74417 18.8706 11.0586C18.8706 12.9457 18.2014 14.6766 17.0875 16.0268L20.5337 19.473C20.8266 19.7659 20.8266 20.2408 20.5337 20.5337C20.2408 20.8266 19.7659 20.8266 19.473 20.5337L16.0268 17.0874ZM4.7467 11.0586C4.7467 7.5726 7.57266 4.74664 11.0586 4.74664C14.5446 4.74664 17.3706 7.5726 17.3706 11.0586C17.3706 12.791 16.6726 14.3604 15.5426 15.501C15.5354 15.5076 15.5284 15.5144 15.5214 15.5214C15.5144 15.5283 15.5076 15.5354 15.501 15.5426C14.3604 16.6726 12.7911 17.3705 11.0586 17.3705C7.57266 17.3705 4.7467 14.5446 4.7467 11.0586Z" fill="black"/>
</svg>
